<svg width="108" height="20" viewBox="0 0 108 20" fill="none" xmlns="http://www.w3.org/2000/svg">
<path opacity="0.4" fill-rule="evenodd" clip-rule="evenodd" d="M54 14C51.7909 14 50 12.2091 50 10C50 7.79086 51.7909 6 54 6C56.2091 6 58 7.79086 58 10C58 12.2091 56.2091 14 54 14ZM4 14C1.79086 14 0 12.2091 0 10C0 7.79086 1.79086 6 4 6C6.20914 6 8 7.79086 8 10C8 12.2091 6.20914 14 4 14ZM79 14C76.7909 14 75 12.2091 75 10C75 7.79086 76.7909 6 79 6C81.2091 6 83 7.79086 83 10C83 12.2091 81.2091 14 79 14ZM104 14C101.791 14 100 12.2091 100 10C100 7.79086 101.791 6 104 6C106.209 6 108 7.79086 108 10C108 12.2091 106.209 14 104 14ZM29 20C23.4772 20 19 15.5228 19 10C19 4.47715 23.4772 0 29 0C34.5228 0 39 4.47715 39 10C39 15.5228 34.5228 20 29 20ZM29 18C33.4183 18 37 14.4183 37 10C37 5.58172 33.4183 2 29 2C24.5817 2 21 5.58172 21 10C21 14.4183 24.5817 18 29 18Z" fill="white"/>
<path fill-rule="evenodd" clip-rule="evenodd" d="M29 14C26.7909 14 25 12.2091 25 10C25 7.79086 26.7909 6 29 6C31.2092 6 33 7.79086 33 10C33 12.2091 31.2092 14 29 14ZM21.929 17.0711L23.3432 15.6569C24.7909 17.1046 26.7909 18 29 18C33.4183 18 37 14.4183 37 10C37 5.58172 33.4183 2 29 2V0C34.5229 0 39 4.47715 39 10C39 15.5228 34.5229 20 29 20C26.2386 20 23.7386 18.8807 21.929 17.0711Z" fill="white"/>
</svg>
